<?xml version="1.0" encoding="utf-8"?>
<!-- Generator: Adobe Illustrator 18.1.0, SVG Export Plug-In . SVG Version: 6.00 Build 0)  -->
<svg version="1.1" id="Layer_1" xmlns="http://www.w3.org/2000/svg" xmlns:xlink="http://www.w3.org/1999/xlink" x="0px" y="0px"
	 viewBox="-233 325 144 144" enable-background="new -233 325 144 144" xml:space="preserve">
<g>
	<path fill="#FFFFFF" d="M-201.2,465.3c-4.8-0.1-30.3,0-30.3,0s40.1-116.7,41.6-120.3c3.6-8.9,11.3-16.2,18.7-16.2
		c4.9,0,10.8-0.2,18.2-0.2c11,0,14,6.2,14,6.2s-4.1,0.8-6.9,8.6c-10.6,30.3-36.5,104.3-37.2,105.9
		C-185.1,454.8-190.7,465.5-201.2,465.3z"/>
	<g opacity="0.4">
		<path fill="#FFFFFF" d="M-144.3,330.4c-3.4,9.9-8.3,31.9-16.4,55.2c10.2,29.2,30.5,79.8,30.5,79.8s23.7,0,27.9,0
			c4.2,0,12.5-9.6,7.7-22.4c-8.6-23-34-84.9-42.9-105.1C-140.3,331.4-143.4,331.1-144.3,330.4z"/>
	</g>
	<path fill="#FFFFFF" d="M-103.8,465.2c0,0-3-2.5-6.2-7.8c-4.3-7.2-9.3-19.1-14-26.3c-4.3-6.6-7.9-9.3-14.4-9.3s-30.7,0.3-30.7,0.3
		s15.2,33.3,20.5,38.1c5.4,4.8,10.4,5.1,15.2,5.1C-128.5,465.2-103.8,465.2-103.8,465.2z"/>
</g>
</svg>
